<svg width="48" height="48" viewBox="0 0 48 48" fill="none" xmlns="http://www.w3.org/2000/svg">
  <defs>
    <radialGradient id="bloom" cx="50%" cy="50%" r="50%">
      <stop offset="0%" stop-color="#FF2E97" stop-opacity="0.38"/>
      <stop offset="55%" stop-color="#7A3CFF" stop-opacity="0.10"/>
      <stop offset="100%" stop-color="#7A3CFF" stop-opacity="0"/>
    </radialGradient>
    <radialGradient id="core" cx="38%" cy="34%" r="74%">
      <stop offset="0%" stop-color="#FFE9C2"/><stop offset="22%" stop-color="#FF9ECB"/>
      <stop offset="55%" stop-color="#FF2E97"/><stop offset="100%" stop-color="#591A84"/>
    </radialGradient>
    <linearGradient id="sCti" x1="29.81" y1="9.63" x2="29.81" y2="38.37" gradientUnits="userSpaceOnUse">
      <stop offset="0%" stop-color="#FF2E97" stop-opacity="0.08"/><stop offset="100%" stop-color="#FF2E97"/></linearGradient>
    <linearGradient id="sSiem" x1="29.81" y1="9.63" x2="29.81" y2="38.37" gradientUnits="userSpaceOnUse">
      <stop offset="0%" stop-color="#7A3CFF" stop-opacity="0.08"/><stop offset="100%" stop-color="#7A3CFF"/></linearGradient>
    <linearGradient id="sSoar" x1="29.81" y1="9.63" x2="29.81" y2="38.37" gradientUnits="userSpaceOnUse">
      <stop offset="0%" stop-color="#FFB23E" stop-opacity="0.08"/><stop offset="100%" stop-color="#FFB23E"/></linearGradient>
  </defs>
  <rect width="48" height="48" rx="10" fill="#0A0612"/>
  <circle cx="24" cy="24" r="15.5" fill="url(#bloom)"/>
  <g transform="rotate(0 24 24)">
    <path d="M 29.81 9.63 A 15.5 15.5 0 0 1 29.81 38.37" fill="none" stroke="url(#sCti)" stroke-width="2.8" stroke-linecap="round"/>
    <circle cx="29.81" cy="38.37" r="4.2" fill="#FF2E97" opacity="0.28"/><circle cx="29.81" cy="38.37" r="2.5" fill="#FF2E97"/><circle cx="29.0" cy="37.4" r="0.9" fill="#fff" opacity="0.7"/>
  </g>
  <g transform="rotate(120 24 24)">
    <path d="M 29.81 9.63 A 15.5 15.5 0 0 1 29.81 38.37" fill="none" stroke="url(#sSiem)" stroke-width="2.8" stroke-linecap="round"/>
    <circle cx="29.81" cy="38.37" r="4.2" fill="#7A3CFF" opacity="0.28"/><circle cx="29.81" cy="38.37" r="2.5" fill="#7A3CFF"/><circle cx="29.0" cy="37.4" r="0.9" fill="#fff" opacity="0.7"/>
  </g>
  <g transform="rotate(240 24 24)">
    <path d="M 29.81 9.63 A 15.5 15.5 0 0 1 29.81 38.37" fill="none" stroke="url(#sSoar)" stroke-width="2.8" stroke-linecap="round"/>
    <circle cx="29.81" cy="38.37" r="4.2" fill="#FFB23E" opacity="0.28"/><circle cx="29.81" cy="38.37" r="2.5" fill="#FFB23E"/><circle cx="29.0" cy="37.4" r="0.9" fill="#fff" opacity="0.7"/>
  </g>
  <circle cx="24" cy="24" r="6.9" fill="url(#core)"/>
  <circle cx="24" cy="24" r="6.9" fill="none" stroke="#fff" stroke-opacity="0.16" stroke-width="0.5"/>
  <circle cx="24" cy="24" r="2.9" fill="none" stroke="#fff" stroke-opacity="0.5" stroke-width="1"/>
  <ellipse cx="21.5" cy="21.2" rx="2.3" ry="1.5" fill="#fff" fill-opacity="0.55" transform="rotate(-35 21.5 21.2)"/>
</svg>
